<mxfile host="app.diagrams.net" agent="Mozilla/5.0 (Windows NT 10.0; Win64; x64) AppleWebKit/537.36 (KHTML, like Gecko) Chrome/131.0.0.0 Safari/537.36 OPR/116.0.0.0" version="26.0.14">
  <diagram name="Page-1" id="MR5qgU_-_Ue6OsjT2rvR">
    <mxGraphModel dx="1437" dy="813" grid="1" gridSize="10" guides="1" tooltips="1" connect="1" arrows="1" fold="1" page="1" pageScale="1" pageWidth="850" pageHeight="1100" math="0" shadow="0">
      <root>
        <mxCell id="0" />
        <mxCell id="1" parent="0" />
        <mxCell id="2" value="Start Diagram" style="whiteSpace=wrap;strokeWidth=2;" parent="1" vertex="1">
          <mxGeometry x="109" y="8" width="159" height="54" as="geometry" />
        </mxCell>
        <mxCell id="3" value="Define shapes and connections" style="whiteSpace=wrap;strokeWidth=2;" parent="1" vertex="1">
          <mxGeometry x="58" y="112" width="260" height="78" as="geometry" />
        </mxCell>
        <mxCell id="4" value="Decide on diagram type" style="rhombus;strokeWidth=2;whiteSpace=wrap;" parent="1" vertex="1">
          <mxGeometry x="76" y="240" width="224" height="224" as="geometry" />
        </mxCell>
        <mxCell id="5" value="Simple flowchart" style="rounded=1;arcSize=20;strokeWidth=2" parent="1" vertex="1">
          <mxGeometry x="8" y="537" width="151" height="54" as="geometry" />
        </mxCell>
        <mxCell id="6" value="Complex flowchart" style="rounded=1;arcSize=20;strokeWidth=2" parent="1" vertex="1">
          <mxGeometry x="209" y="537" width="165" height="54" as="geometry" />
        </mxCell>
        <mxCell id="7" value="Split diagram into sections" style="rounded=1;arcSize=20;strokeWidth=2" parent="1" vertex="1">
          <mxGeometry x="182" y="641" width="221" height="54" as="geometry" />
        </mxCell>
        <mxCell id="8" value="Detail each section" style="rounded=1;arcSize=20;strokeWidth=2" parent="1" vertex="1">
          <mxGeometry x="209" y="745" width="167" height="54" as="geometry" />
        </mxCell>
        <mxCell id="9" value="Create connections between sections" style="rounded=1;arcSize=20;strokeWidth=2" parent="1" vertex="1">
          <mxGeometry x="177" y="849" width="230" height="78" as="geometry" />
        </mxCell>
        <mxCell id="10" value="Review and refine diagram" style="rounded=1;arcSize=20;strokeWidth=2" parent="1" vertex="1">
          <mxGeometry x="181" y="977" width="222" height="54" as="geometry" />
        </mxCell>
        <mxCell id="11" value="Diagram complete" style="rhombus;strokeWidth=2;whiteSpace=wrap;" parent="1" vertex="1">
          <mxGeometry x="200" y="1103" width="185" height="185" as="geometry" />
        </mxCell>
        <mxCell id="12" value="End Diagram" style="rounded=1;arcSize=20;strokeWidth=2" parent="1" vertex="1">
          <mxGeometry x="232" y="1360" width="120" height="54" as="geometry" />
        </mxCell>
        <mxCell id="13" value="" style="curved=1;startArrow=none;endArrow=block;exitX=0.5;exitY=1;entryX=0.5;entryY=0;" parent="1" source="2" target="3" edge="1">
          <mxGeometry relative="1" as="geometry">
            <Array as="points" />
          </mxGeometry>
        </mxCell>
        <mxCell id="14" value="" style="curved=1;startArrow=none;endArrow=block;exitX=0.5;exitY=1;entryX=0.5;entryY=0;" parent="1" source="3" target="4" edge="1">
          <mxGeometry relative="1" as="geometry">
            <Array as="points" />
          </mxGeometry>
        </mxCell>
        <mxCell id="15" value="Simple" style="curved=1;startArrow=none;endArrow=block;exitX=0.15;exitY=1;entryX=0.5;entryY=-0.01;" parent="1" source="4" target="5" edge="1">
          <mxGeometry relative="1" as="geometry">
            <Array as="points">
              <mxPoint x="84" y="500" />
            </Array>
          </mxGeometry>
        </mxCell>
        <mxCell id="16" value="Complex" style="curved=1;startArrow=none;endArrow=block;exitX=0.85;exitY=1;entryX=0.5;entryY=-0.01;" parent="1" source="4" target="6" edge="1">
          <mxGeometry relative="1" as="geometry">
            <Array as="points">
              <mxPoint x="292" y="500" />
            </Array>
          </mxGeometry>
        </mxCell>
        <mxCell id="17" value="" style="curved=1;startArrow=none;endArrow=block;exitX=0.5;exitY=0.99;entryX=0.5;entryY=-0.01;" parent="1" source="6" target="7" edge="1">
          <mxGeometry relative="1" as="geometry">
            <Array as="points" />
          </mxGeometry>
        </mxCell>
        <mxCell id="18" value="" style="curved=1;startArrow=none;endArrow=block;exitX=0.5;exitY=0.99;entryX=0.5;entryY=-0.01;" parent="1" source="7" target="8" edge="1">
          <mxGeometry relative="1" as="geometry">
            <Array as="points" />
          </mxGeometry>
        </mxCell>
        <mxCell id="19" value="" style="curved=1;startArrow=none;endArrow=block;exitX=0.5;exitY=0.99;entryX=0.5;entryY=-0.01;" parent="1" source="8" target="9" edge="1">
          <mxGeometry relative="1" as="geometry">
            <Array as="points" />
          </mxGeometry>
        </mxCell>
        <mxCell id="20" value="" style="curved=1;startArrow=none;endArrow=block;exitX=0.5;exitY=0.99;entryX=0.5;entryY=-0.01;" parent="1" source="9" target="10" edge="1">
          <mxGeometry relative="1" as="geometry">
            <Array as="points" />
          </mxGeometry>
        </mxCell>
        <mxCell id="21" value="" style="curved=1;startArrow=none;endArrow=block;exitX=0.47;exitY=0.99;entryX=0.44;entryY=0;" parent="1" source="10" target="11" edge="1">
          <mxGeometry relative="1" as="geometry">
            <Array as="points">
              <mxPoint x="276" y="1067" />
            </Array>
          </mxGeometry>
        </mxCell>
        <mxCell id="22" value="No" style="curved=1;startArrow=none;endArrow=block;exitX=0.56;exitY=0;entryX=0.53;entryY=0.99;" parent="1" source="11" target="10" edge="1">
          <mxGeometry relative="1" as="geometry">
            <Array as="points">
              <mxPoint x="308" y="1067" />
            </Array>
          </mxGeometry>
        </mxCell>
        <mxCell id="23" value="Yes" style="curved=1;startArrow=none;endArrow=block;exitX=0.5;exitY=1;entryX=0.5;entryY=0;" parent="1" source="11" target="12" edge="1">
          <mxGeometry relative="1" as="geometry">
            <Array as="points" />
          </mxGeometry>
        </mxCell>
      </root>
    </mxGraphModel>
  </diagram>
</mxfile>
